<svg xmlns="http://www.w3.org/2000/svg">
    <symbol id="deco-blob" viewBox="0 0 336 691">
        <path d="m.049707 405.925c-2.439167-59.692 85.583493-95.092 107.582293-119.027 15.338-16.687 15.488-36.634 6.056-71.763-4.652-17.324-18.2853-76.603-21.7149-105.147-4.1621-34.6411 21.3909-87.029 57.5009-104.23557 27.92-13.30437 57.079-.19172 72.221 5.95267 9.984 4.0512 42.067 14.9436 71.652 42.168 31.158 28.6708 28.603 46.6229 25.757 52.9929-13.624 30.494-73.239 12.042-79.728 41.435-5.192 23.515 30.509 49.549 44.986 65.491 13.572 14.946 55.012 43.841 51.418 73.732-3.594 29.892-25.491 49.321-30.959 60.591-7.654 15.776-24.561 53.506-30.951 78.216-7.987 30.888-3.494 76.721-14.976 133.017-11.482 56.295-40.935 99.638-54.413 110.598-17.972 14.613-77.452 44.417-108.4032-11.878-32.4688-59.057 3.043-71.497-17.5815-131.284-20.9666-60.78-75.90406-58.637-78.446593-120.859z" />
    </symbol>
    <symbol id="deco-burger" viewBox="0 0 160 128">
        <path style="fill: var(--db-color-1, #F7EDC0)" d="m78.0449 119.784c22.4871-.474 74.2681-4.285 75.3251-4.721.675-.279.975-.704 1.075-1.491.1-.788.1-2.288.1-2.788l.5-8.5c.008-1-.3-1.968-.827-2.4727-.694-.6649-1.611-1.0181-2.673-1.0272-19.839 1.3309-66.4999 3.1729-75.0001 3.4999-8.5002.328-48.0376.536-69.10396.523-.64197-.001-1.77448.485-2.13279.981-.35831.497-.46055 1.091-.5438 1.496-.71951 3.5-.7195 9 .0518 14.035.24594.868.95974 1.424 1.04928 1.509.27015.259.52679.505 1.58895.514z" />
        <path style="fill: var(--db-color-2, #F2C963)" d="m77.5449 73.7841c-22 .5-63.27 1.473-67.99998 1-.97146-.0971-1.5-.5-2-1s-1-2-1-2.5-3.4175-16.1745-3.4175-16.1745c-.07941-.9969.37057-2.0361.86019-2.5767.64538-.7125 1.99857-1.6643 3.05737-1.7488 19.88652-.0826 68.49652-.7225 77.00002-1s45.686-2.3987 66.702-3.909c.64-.0461 1.805.3575 2.198.8277.392.4703.622 1.0404.648 1.453.343 5.4124.039 15.1283-.405 17.2652-.184.8827-.857 1.4878-.94 1.5798-.251.2772-.49.5406-1.549.6252 0 0-51.1541 5.6581-73.1541 6.1581z" />
        <path style="fill: var(--db-color-1, #F7EDC0)" d="m77.0448 6.78418c-21.1667.66667-64.6 2.9-69.00001 6.50002-.50001.5-.99984 1-.99985 1.5l-.00009 1.5-.00005 19c.00015 1 .50021 2 1.00015 2.5.65896.6589 1.99995 1.5 2.99985 1.5 18.6667-1.5 58-4.6 66-5s49.6662-.8333 69.5002-1c.604-.0051 1.667-.5 2-1s.543-1.089.5-1.5c-.692-6.6401-2.835-18.7748-4-23.00002-.239-.8653-.915-1.41501-1-1.5-.257-.25643-.5-.49999-1.5-.5z" />
    </symbol>
    <symbol id="play" viewBox="0 0 15 15">
        <path d="M7.5,0.5c3.9,0,7,3.1,7,7c0,3.9-3.1,7-7,7c-3.9,0-7-3.1-7-7l0,0C0.5,3.6,3.6,0.5,7.5,0.5 C7.5,0.5,7.5,0.5,7.5,0.5L7.5,0.5L7.5,0.5z M6.1,4.7v5.6l4.2-2.8L6.1,4.7z" />
    </symbol>
</svg>