<svg xmlns="http://www.w3.org/2000/svg">
    <symbol id="deco-blob" viewBox="0 0 370 689">
        <path d="m.0495506 404.75c-2.4292806-59.519 85.2362494-94.817 107.1454494-118.682 15.276-16.639 13.425-36.528 4.031-71.555-4.632-17.274-36.2104-76.382-39.6261-104.843-4.1453-34.5411 21.3044-86.7774 57.2671-103.93416 27.807-13.26588 56.847-.19118 71.928 5.93536 9.944 4.0395 41.897 14.9004 71.362 42.046 31.031 28.5878 26.177 45.4311 23.343 51.7828-13.568 30.406-68.537 13.192-75 42.5-8.49 38.5 38.516 72.289 56.5 84 21.5 14 85.207-10.707 91.92 18.741 7.894 34.625-29.346 56.025-51.66 99.949-22.313 43.924-28.334 61.189-34.698 85.828-7.955 30.798-13.283 65.078-24.718 121.211-11.435 56.132-40.769 99.349-54.193 110.278-17.898 14.571-77.138 44.289-107.963-11.844-32.337-58.885 3.0306-71.29-17.5101-130.904-20.8816-60.603-75.59612-58.467-78.1283494-120.509z" />
    </symbol>
    <symbol id="deco-burger" viewBox="0 0 160 128">
        <path style="fill: var(--db-color-1, #F7EDC0)" d="m78.0449 119.784c22.4871-.474 74.2681-4.285 75.3251-4.721.675-.279.975-.704 1.075-1.491.1-.788.1-2.288.1-2.788l.5-8.5c.008-1-.3-1.968-.827-2.4727-.694-.6649-1.611-1.0181-2.673-1.0272-19.839 1.3309-66.4999 3.1729-75.0001 3.4999-8.5002.328-48.0376.536-69.10396.523-.64197-.001-1.77448.485-2.13279.981-.35831.497-.46055 1.091-.5438 1.496-.71951 3.5-.7195 9 .0518 14.035.24594.868.95974 1.424 1.04928 1.509.27015.259.52679.505 1.58895.514z" />
        <path style="fill: var(--db-color-2, #F2C963)" d="m77.5449 73.7841c-22 .5-63.27 1.473-67.99998 1-.97146-.0971-1.5-.5-2-1s-1-2-1-2.5-3.4175-16.1745-3.4175-16.1745c-.07941-.9969.37057-2.0361.86019-2.5767.64538-.7125 1.99857-1.6643 3.05737-1.7488 19.88652-.0826 68.49652-.7225 77.00002-1s45.686-2.3987 66.702-3.909c.64-.0461 1.805.3575 2.198.8277.392.4703.622 1.0404.648 1.453.343 5.4124.039 15.1283-.405 17.2652-.184.8827-.857 1.4878-.94 1.5798-.251.2772-.49.5406-1.549.6252 0 0-51.1541 5.6581-73.1541 6.1581z" />
        <path style="fill: var(--db-color-1, #F7EDC0)" d="m77.0448 6.78418c-21.1667.66667-64.6 2.9-69.00001 6.50002-.50001.5-.99984 1-.99985 1.5l-.00009 1.5-.00005 19c.00015 1 .50021 2 1.00015 2.5.65896.6589 1.99995 1.5 2.99985 1.5 18.6667-1.5 58-4.6 66-5s49.6662-.8333 69.5002-1c.604-.0051 1.667-.5 2-1s.543-1.089.5-1.5c-.692-6.6401-2.835-18.7748-4-23.00002-.239-.8653-.915-1.41501-1-1.5-.257-.25643-.5-.49999-1.5-.5z" />
    </symbol>
    <symbol id="icon-share" viewBox="0 -2 45 52">
        <path fill-rule="evenodd" clip-rule="evenodd" d="M38 9a5 5 0 11-10 0 5 5 0 0110 0zm4 0a9 9 0 01-15.4 6.4l-9 6a9 9 0 010 5.4l9.4 5.4-.1.2a9 9 0 11-2.2 3.1l-9.2-5.3A9 9 0 010 24a9 9 0 0115.6-6l8.9-6A9 9 0 1142 9zM9 29a5 5 0 100-10 5 5 0 000 10zm24 15a5 5 0 100-10 5 5 0 000 10z" />
    </symbol>
    <symbol id="icon-refresh" viewBox="0 0 25 25">
        <path d="m17.856 5.476 2.56-2.56v7.657h-7.66l3.524-3.523c-1.181-1.191-2.8-1.946-4.614-1.947-2.854.003-5.28 1.829-6.177 4.375h-.02c-.124.352-.22.718-.283 1.094h-2.202c.537-4.318 4.21-7.656 8.677-7.656h.011c2.417 0 4.602.977 6.184 2.559zm-14.94 14.94 2.562-2.559c1.58 1.582 3.766 2.56 6.183 2.56h.011c4.467 0 8.14-3.339 8.677-7.657h-2.201c-.064.377-.16.742-.284 1.094h-.02c-.896 2.547-3.322 4.372-6.176 4.375-1.815-.001-3.433-.755-4.614-1.947l3.524-3.522h-7.661v7.657z" transform="translate(.833 .833)" />
    </symbol>
    <symbol id="icon-arrow-left" viewBox="0 0 20 20">
        <path d="m16.5 9.188h-9.888l4.542-4.542-1.154-1.146-6.5 6.5 6.5 6.5 1.146-1.146-4.534-4.541h9.888z" />
    </symbol>
    <symbol id="icon-anchor-down" viewBox="0 0 11 11">
        <path d="m3.953 7.858 2.817-2.857-2.817-2.857.577-.584 3.399 3.439-3.401 3.441z" fill-rule="evenodd" transform="matrix(0 1 -1 0 10.999 -.307)" />
    </symbol>
    <symbol id="icon-energy" viewBox="0 0 50 49">
        <path d="M32.455 8.156h-3.43V4.048h-8.217v4.108h-3.43a2.744 2.744 0 0 0-2.732 2.732v31.49c0 1.52 1.232 2.753 2.732 2.753h15.057c1.52 0 2.753-1.232 2.753-2.732v-31.51c0-1.5-1.233-2.733-2.733-2.733zm-9.592 32.867V29.725h-4.109l8.217-15.406v11.298h4.108l-8.216 15.406z" fill-rule="evenodd" />
    </symbol>
    <symbol id="icon-cloud" viewBox="0 0 45 45">
        <path fill-rule="evenodd" d="M36.058 18.83c-1.247-6.325-6.802-11.074-13.475-11.074-5.298 0-9.9 3.007-12.192 7.407C4.873 15.75.583 20.425.583 26.09c0 6.068 4.932 11 11 11h23.833c5.06 0 9.167-4.107 9.167-9.167 0-4.84-3.758-8.763-8.525-9.093zm-.642 14.593H11.583A7.331 7.331 0 0 1 4.25 26.09a7.331 7.331 0 0 1 7.333-7.334h1.302c1.21-4.235 5.078-7.333 9.698-7.333 5.573 0 10.083 4.51 10.083 10.083v.917h2.75c3.044 0 5.5 2.457 5.5 5.5s-2.456 5.5-5.5 5.5z" />
    </symbol>
    <symbol id="icon-electricity" viewBox="0 0 45 45">
        <path d="M40.7 26.2a2 2 0 0 0-2-2.1h-4.2v4.1h4.1a2 2 0 0 0 2-2zm-2 6.2h-4.2v4.1h4.1c1.2 0 2-.9 2-2s-.8-2.1-2-2.1zM22 26.2h-4.2v8.3H22a4.2 4.2 0 0 0 4.2 4.1h6.2V22h-6.2a4.2 4.2 0 0 0-4.2 4.2z" />
        <path d="M7.5 24a4.2 4.2 0 0 1 4.1-4h3.1a7.3 7.3 0 0 0 0-14.6H7.5c-1.2 0-2.1 1-2.1 2s1 2.1 2 2.1h7.3a3.1 3.1 0 0 1 3.1 3.2 3.1 3.1 0 0 1-3 3h-3.2a8.3 8.3 0 1 0 0 16.7h4.2v-4.2h-4.2a4.2 4.2 0 0 1-4.1-4.1z" />
    </symbol>
    <symbol id="icon-water-drop" viewBox="0 0 42 43">
        <path d="M31.5 14 21 3.6 10.5 14A14.8 14.8 0 0 0 21 39.3 14.8 14.8 0 0 0 31.5 14zM9.9 25.1c0-3.7 1.2-6 3.3-8.1L21 9l7.8 8c2.1 2.2 3.3 4.4 3.3 8.1H9.9z" fill-rule="evenodd" />
    </symbol>
</svg>