<svg xmlns="http://www.w3.org/2000/svg" xmlns:xlink="http://www.w3.org/1999/xlink" viewBox="0 -1380 20329.9 2088"><defs><path id="a" d="M52 289q7 42 54 97t116 56q35 0 64-18t43-45q42 63 101 63 37 0 64-22t28-59q0-29-14-47t-27-22-23-4q-19 0-31 11t-12 29q0 46 50 63-11 13-40 13-13 0-19-2-38-16-56-66-60-221-60-258 0-28 16-40t35-12q37 0 73 33t49 81q3 10 6 11t16 2h4q15 0 15-8 0-1-2-11-16-57-62-101T333-11q-70 0-106 63-41-62-94-62h-6q-49 0-70 26T35 71q0 32 19 52t45 20q43 0 43-42 0-20-12-35t-23-20-13-5l-3-1q0-1 6-4t16-7 19-3q36 0 62 45 9 16 23 68t28 108 16 66q5 27 5 39 0 28-15 40t-34 12q-40 0-75-32t-49-82q-2-9-5-10t-16-2H58q-6 6-6 11Z"/><path id="b" d="M56 347q0 13 14 20h637q15-8 15-20 0-11-14-19l-318-1H72q-16 5-16 20Zm0-194q0 15 16 20h636q14-10 14-20 0-13-15-20H70q-14 7-14 20Z"/><path id="c" d="m213 578-13-5q-14-5-40-10t-58-7H83v46h19q47 2 87 15t56 24 28 22q2 3 12 3 9 0 17-6V361l1-300q7-7 12-9t24-4 62-2h26V0h-11q-21 3-159 3-136 0-157-3H88v46h64q16 0 25 1t16 3 8 2 6 5 6 4v517Z"/><path id="d" d="M96 585q56 81 153 81 48 0 96-26t78-92q37-83 37-228 0-155-43-237-20-42-55-67t-61-31-51-7q-26 0-52 6t-61 32-55 67q-43 82-43 237 0 174 57 265Zm225 12q-30 32-71 32-42 0-72-32-25-26-33-72t-8-192q0-158 8-208t36-79q28-30 69-30 40 0 68 30 29 30 36 84t8 203q0 145-8 191t-33 73Z"/><path id="e" d="M84 237v13l14 20h581q15-8 15-20t-15-20H98q-14 7-14 20Z"/><path id="f" d="M127 463q-27 0-42 17t-16 44q0 55 48 98t116 43q35 0 44-1 74-12 113-53t40-89q0-52-34-101t-94-71l-3-2q0-1 9-3t29-9 38-21q82-53 82-140 0-79-62-138T238-22q-80 0-138 43T42 130q0 28 18 45t45 18q28 0 46-18t18-45q0-11-3-20t-7-16-11-12-12-8-10-4-8-3l-4-1q51-45 124-45 55 0 83 53 17 33 17 101v20q0 95-64 127-15 6-61 7l-42 1-3 2q-2 3-2 16 0 18 8 18 28 0 58 5 34 5 62 42t28 112v8q0 57-35 79-22 14-47 14-32 0-59-11t-38-23-11-12h3q3-1 8-2t10-5 12-7 10-11 8-15 3-20q0-22-14-39t-45-18Z"/><path id="g" d="M399-80q0 33 1 50t2 19v4l-15-4q-46-11-84-11-95 0-165 57T51 201q-1 8-1 43 0 102 48 194t129 163q124 103 249 103 38 0 48-1 97-14 156-86t60-182q0-180-148-328-63-60-131-91l-17-8V3q0-1 5-27t21-42 46-16q35 0 67 22t42 57q6 14 13 14 9 0 11-9 0-8-10-36t-28-66-54-65-76-29q-82 0-82 107v7Zm237 548q0 55-15 96t-41 61-50 30-53 10q-48 0-98-25-102-49-164-176t-62-248q0-106 54-157 24-21 29-21v8q0 40 33 74t78 35q25 0 43-11t27-30 12-32 6-27l13 9q64 44 109 121t62 149 17 134ZM314 18q48 0 90 21l-1 10q-4 55-37 66-12 2-19 2h-6q-3 0-4 1-20 0-41-20t-22-46q0-34 40-34Z"/><path id="h" d="M26 385q-7 7-7 10 0 4 3 16t5 14q2 5 9 5t51 1h53l19 80q3 11 7 29t7 26 6 20 8 17 10 12 14 9 18 2q18-1 25-11t7-19q0-7-9-47t-20-79l-10-37q0-2 50-2h51q7-7 7-11 0-22-13-35H210l-36-145Q135 80 135 68q0-42 27-42 35 0 68 34t53 84q2 6 5 7t15 2h4q15 0 15-8 0-3-3-12-5-16-18-38t-34-47-51-42-61-17q-30 0-57 15T59 56q-2 8-2 27v18l35 140q35 141 36 142 0 2-51 2H26Z"/><path id="i" d="M184 600q0 24 19 42t44 19q18 0 30-12t13-30q0-23-20-42t-44-20q-15 0-28 10t-14 33ZM21 287q0 8 9 31t24 51 44 51 60 22q39 0 65-23t27-62q0-17-14-56t-40-105-42-113q-5-22-5-32 0-25 17-25 9 0 19 3t23 14 27 35 25 59q3 12 5 14t17 2q20 0 20-10 0-8-9-31t-25-51-45-50-62-22q-32 0-59 21T74 74q0 17 5 32t43 114q38 101 44 121t7 39q0 24-17 24h-2q-30 0-55-33t-38-84q-1-1-2-3t-1-3-2-2-3-1-4 0-8 0H27q-6 6-6 9Z"/><path id="j" d="M117 59q0-33 25-33 37 0 63 105 6 20 10 21 2 1 10 1h16q3 0 5-2t2-7q-1-6-3-16t-11-38-20-47-31-37-46-17q-36 0-67 22T38 85q0 12 1 17l65 258q63 255 63 263 0 3-1 5t-4 4-5 2-8 1-8 1-9 1-10 0h-13q-3 0-8 1t-6 3-1 6q0 2 2 14 5 19 11 21t72 6q15 1 34 2t30 3 11 1q12 0 12-8 0-11-73-300T118 83v-8q0-6-1-10v-6Z"/><path id="k" d="M287 628q0 7-57 9-23 0-30 1t-7 9q0 8 4 20t7 15q2 1 199 1 167-1 187-1t40-6q72-17 122-79t51-166q0-156-107-280T444 3l-14-2-194-1H72Q48 0 41 2t-8 9q0 2 3 14 4 16 8 18t23 3q27 0 60 3 14 3 19 12 3 4 72 278t69 289Zm416-159q0 38-11 68t-26 47-37 29-39 16-35 7h-43q-17 0-33 1h-43q-44 0-50-10-2-4-73-288T242 52q0-4 11-4t77-1h19q14 0 24-1 126 0 208 82 36 36 59 84t43 127 20 130Z"/><path id="l" d="M740 435q0-115-64-222T511 42 304-22q-97 0-166 57T51 201q-1 8-1 43 0 102 48 194t129 163q124 103 249 103 38 0 48-1 97-14 156-86t60-182Zm-103 41q0 89-46 139t-115 50q-80 0-154-60-80-63-122-177t-43-212q0-90 43-143t114-54q90 0 171 79t123 215q29 95 29 163Z"/><path id="m" d="M289 629q0 6-57 8-24 0-31 1t-7 10q0 1 2 11 1 3 2 7t1 5 2 5 2 3 4 2 5 2 8 0 12 1h30q24 0 45-1h91q12 0 16-5 1-4 37-282l36-279 23 37q24 36 64 100t88 140q175 279 177 281l3 3q2 2 4 3l6 2h136q23 0 29 1 34 0 34-11 0-5-3-17t-3-13q-4-6-37-6-40-1-51-3t-18-11q-3-5-72-283T797 59q0-4 1-5t7-4 17-2 33-2h31q6-9 6-11 0-16-7-30-5-5-16-5-5 0-41 1t-92 1h-92q-31 0-35-1-17 0-17 10 0 2 2 14 4 16 8 18t23 3q27 0 60 3 14 3 19 12 2 4 38 146t71 283 35 141L654 322Q458 10 453 5l-4-2q-5-3-16-3-15 0-18 7-2 4-41 310l-39 307-68-270Q200 88 200 79q6-33 72-33h10q6-5 7-9t-3-18q-4-16-8-18-4-1-11-1h-12q-10 0-34 1t-64 1q-30 0-62-1T58 0Q43 0 39 2t-4 9q0 2 3 14t5 15q2 6 22 6 70 0 89 40 4 6 69 268t66 275Z"/><path id="n" d="M56 237v13l14 20h299v150l1 150q10 13 19 13 13 0 20-15V270h298q15-8 15-20t-15-20H409V-68q-8-14-18-14h-4q-12 0-18 14v298H70q-14 7-14 20Z"/><path id="o" d="M109 429q-27 0-43 18t-16 44q0 71 53 123t132 52q91 0 152-56t62-145q0-43-20-82t-48-68-80-74q-36-31-100-92l-59-56 76-1q157 0 167 5 7 2 24 89v3h40v-3q-1-3-13-91T421 3V0H50v31q0 7 6 15t30 35q29 32 50 56 9 10 34 37t34 37 29 33 28 34 23 30 21 32 15 29 13 32 7 30 3 33q0 63-34 109t-97 46q-33 0-58-17t-35-33-10-19q0-1 5-1 18 0 37-14t19-46q0-25-16-42t-45-18Z"/><path id="p" d="M228 637q-34 0-36 4-1 2-1 8 0 24 11 33 2 1 17 1 41-2 136-2h63q29 0 45 1t20 0q16 0 16-10 0-2-2-14-5-17-10-20h-14q-4 0-9-1t-9 0q-39-1-50-3t-18-11q-3-4-32-123-7-26-15-58t-12-47l-4-15q0-2 145-2h145l1 3q0 3 31 123 28 115 28 123t-57 10q-23 0-30 2t-7 9q0 2 2 12 4 17 6 19t16 3q5 0 42-1t94-1q62 0 95 1t36 1q17 0 17-10 0-27-12-34h-14q-4 0-9-1t-9 0q-39-1-50-3t-18-11q-3-5-72-283T634 58q0-7 4-7 8-3 54-5h31q6-8 6-9t-3-18q-4-13-10-19h-15q-37 2-134 2H458q-17 0-21-1-17 0-17 9 0 5 3 14 5 19 10 21 4 1 15 1h6q27 0 60 3 6 1 8 1t6 5 6 9 6 18 7 28 11 43q7 28 11 45 33 132 33 133t-145 1H312l-33-135Q245 63 245 58q0-7 8-9t50-3h31q6-8 6-9t-3-18q-4-13-10-19h-15q-37 2-134 2H69Q52 2 48 1q-17 0-17 9 0 2 3 14 5 19 10 21 4 1 15 1h6q27 0 60 3 14 3 19 12 3 4 72 278t69 289q0 7-57 9Z"/><path id="q" d="M23 287q1 3 2 8t5 22 10 31 15 33 20 30 26 22 33 9q75 0 96-64l10 9q62 55 118 55 65 0 102-47t37-114q0-108-76-199T249-10q-22 0-39 6-11 5-23 15t-19 17l-7 8q-1-1-22-87t-21-87q0-6 8-7t37-3h25q6-7 6-9t-3-18q-3-12-6-15t-13-4h-11q-9 0-34 1t-62 1q-70 0-89-2h-8q-7 7-7 11 2 27 13 35h20q34 1 39 12 3 6 61 239t61 247q1 5 1 14 0 41-25 41-22 0-37-28t-23-61-12-36q-2-2-16-2H29q-6 6-6 9Zm155-185q22-76 74-76 30 0 58 23t46 58q18 34 36 108t19 110v6q0 74-61 74-11 0-22-3t-22-9-20-13-17-15-15-15-11-14-8-10l-3-4q0-1-3-14t-11-44-14-52q-26-106-26-110Z"/><path id="r" d="M40 437q-19 0-19 8 0 5 16 56t34 101l17 49q5 18 13 26h558q32 0 38-1t7-9q0-6-17-114t-19-109q0-7-19-7h-12q-3 0-6 5l-2 3q0 6 6 45t6 61q0 35-13 53t-55 25q-5 1-58 2-46 0-58-1t-18-8q-1-1-71-279T298 60q0-12 88-14 32 0 41-1t9-9q0-5-3-14-4-18-9-21l-2-1h-7q-5 0-52 1T228 2Q99 2 64 0H49q-6 6-6 9t2 18q4 13 10 19h39q80 0 95 9 1 1 2 1 5 3 10 20t40 157q17 68 28 111 70 275 70 281 0 5-29 5h-31q-67 0-88-6-45-10-70-41T67 467q-7-22-10-26t-14-4h-3Z"/><path id="s" d="M285 628q0 7-57 9-23 0-30 1t-7 9q0 2 2 14 6 20 10 21 2 1 11 1h5q41-2 136-2h63q29 0 45 1t20 0q17 0 17-8 0-5-3-14-1-2-1-6t-1-6-2-4-3-3-4-2-7-1-9-1-14 0q-40-1-51-3t-18-11l-81-318q1 0 184 144t188 148q14 14 14 23 0 15-25 17-16 0-16 11 0 2 3 14t5 15q3 5 17 5 4 0 35-1t80-1q23 0 48 1t30 1q20 0 20-10 0-22-8-30-3-5-19-5-75-5-136-51-16-10-70-52t-100-79l-47-37 9-22q9-22 28-67t35-85q75-177 80-183 2-2 5-4 14-10 51-11h21q6-8 6-9t-3-18q-4-13-10-19h-11q-40 3-95 3-122 0-137-3h-10q-6 6-6 9t2 18q4 13 6 16t11 3h3q50 0 50 25 0 4-27 70t-32 75l-58 138-68-53-68-53-23-93q-23-92-23-97 0-7 8-9t50-3h31q6-9 6-11 0-16-7-30-5-5-16-5-3 0-37 1T180 2H85Q52 2 49 1 31 1 31 11q0 2 3 14 4 16 8 18t23 3q27 0 60 3 14 3 19 12 3 4 72 278t69 289Z"/><path id="t" d="M201-11q-75 0-121 49T34 156q0 65 30 123t82 101q76 61 155 61 32 0 40-1 13-3 26-7t35-16 36-30 26-49 12-70q0-107-86-193T201-11Zm-80 131q0-50 26-72t59-22q44 0 83 32t62 84q9 21 23 74t14 92q0 44-18 67-24 30-64 30-63 0-111-58-37-44-55-117t-19-110Z"/><path id="u" d="M42 313q0 163 81 258t180 95q69 0 99-36t30-80q0-25-14-40t-39-15q-23 0-38 14t-15 39q0 44 47 53-22 22-62 25-71 0-117-60-47-66-47-202l1-4q5 6 8 13 41 60 107 60h4q46 0 81-19 24-14 48-40t39-57q21-49 21-107v-18q0-23-5-43-11-59-64-115T253-22q-28 0-54 8t-56 30-51 59-36 97-14 141Zm215 84q-30 0-52-17t-34-45-17-57-6-62q0-83 12-119t38-58q24-18 53-18 51 0 78 38 13 18 18 45t5 105q0 80-5 107t-18 45q-27 36-72 36Z"/></defs><g fill="currentColor" stroke="currentColor" stroke-width="0" data-mml-node="math"><use xlink:href="#a" data-mml-node="mi" transform="scale(1 -1)"/><use xlink:href="#b" data-mml-node="mo" transform="matrix(1 0 0 -1 849.8 0)"/><g data-mml-node="mn" transform="matrix(1 0 0 -1 1905.6 0)"><use xlink:href="#c"/><use xlink:href="#d" transform="translate(500)"/><use xlink:href="#d" transform="translate(1000)"/></g><use xlink:href="#e" data-mml-node="mo" transform="matrix(1 0 0 -1 3627.8 0)"/><g data-mml-node="mfrac"><g data-mml-node="mrow"><use xlink:href="#f" data-mml-node="mn" transform="matrix(1 0 0 -1 4848 -676)"/><use xlink:href="#g" data-mml-node="mi" transform="matrix(1 0 0 -1 5348 -676)"/><use xlink:href="#h" data-mml-node="mi" transform="matrix(1 0 0 -1 6139 -676)"/><use xlink:href="#i" data-mml-node="mi" transform="matrix(1 0 0 -1 6500 -676)"/><use xlink:href="#j" data-mml-node="mi" transform="matrix(1 0 0 -1 6845 -676)"/><use xlink:href="#k" data-mml-node="mi" transform="matrix(1 0 0 -1 7143 -676)"/><use xlink:href="#l" data-mml-node="mi" transform="matrix(1 0 0 -1 7971 -676)"/><use xlink:href="#m" data-mml-node="mi" transform="matrix(1 0 0 -1 8734 -676)"/><use xlink:href="#n" data-mml-node="mo" transform="matrix(1 0 0 -1 10007.2 -676)"/><use xlink:href="#o" data-mml-node="mn" transform="matrix(1 0 0 -1 11007.4 -676)"/><use xlink:href="#g" data-mml-node="mi" transform="matrix(1 0 0 -1 11507.4 -676)"/><use xlink:href="#h" data-mml-node="mi" transform="matrix(1 0 0 -1 12298.4 -676)"/><use xlink:href="#i" data-mml-node="mi" transform="matrix(1 0 0 -1 12659.4 -676)"/><use xlink:href="#j" data-mml-node="mi" transform="matrix(1 0 0 -1 13004.4 -676)"/><use xlink:href="#p" data-mml-node="mi" transform="matrix(1 0 0 -1 13302.4 -676)"/><use xlink:href="#h" data-mml-node="mi" transform="matrix(1 0 0 -1 14190.4 -676)"/><use xlink:href="#h" data-mml-node="mi" transform="matrix(1 0 0 -1 14551.4 -676)"/><use xlink:href="#q" data-mml-node="mi" transform="matrix(1 0 0 -1 14912.4 -676)"/><use xlink:href="#n" data-mml-node="mo" transform="matrix(1 0 0 -1 15637.7 -676)"/><use xlink:href="#g" data-mml-node="mi" transform="matrix(1 0 0 -1 16637.9 -676)"/><use xlink:href="#r" data-mml-node="mi" transform="matrix(1 0 0 -1 17428.9 -676)"/><use xlink:href="#i" data-mml-node="mi" transform="matrix(1 0 0 -1 18132.9 -676)"/><use xlink:href="#j" data-mml-node="mi" transform="matrix(1 0 0 -1 18477.9 -676)"/><use xlink:href="#s" data-mml-node="mi" transform="matrix(1 0 0 -1 18775.9 -676)"/><use xlink:href="#t" data-mml-node="mi" transform="matrix(1 0 0 -1 19624.9 -676)"/></g><use xlink:href="#u" data-mml-node="mn" transform="matrix(1 0 0 -1 12228.9 686)"/><path stroke="none" d="M4748-220h15461.9v-60H4748z"/></g></g></svg>