<?xml version="1.0" encoding="UTF-8"?><svg width="630" height="250" version="1.1" viewBox="0 0 630 250" xmlns="http://www.w3.org/2000/svg"><rect x="423" y="44" width="164" height="164" rx="47" fill="#009839" stroke="#009839" stroke-width="6"/><g fill="#fff"><path d="m545.5 171c-8 0-13.873-1.876-18.182-5.628-4.212-3.848-6.318-9.427-6.318-16.739v-34.633h-17v-16h17v-17l18.039-5v22h20.961v16h-20.961v30.593c0 3.463 0.766 5.964 2.298 7.504 1.531 1.443 4.212 2.164 8.041 2.164 1.915 0 3.638-0.096 5.17-0.288 1.627-0.289 3.399-0.77 5.313-1.443v16.306c-2.01 0.673-4.547 1.202-7.611 1.587-2.967 0.385-4.644 0.577-6.75 0.577z"/><path d="m450 154c0 1.105 0.895 2 2 2h4v10c0 2.761 2.239 5 5 5s5-2.239 5-5v-10h8v10c0 2.761 2.239 5 5 5s5-2.239 5-5v-10h4c1.105 0 2-0.895 2-2v-13c0-8.284-6.716-15-15-15h-10c-8.284 0-15 6.716-15 15v13z"/><path d="m467.69 120.87c-3.747-0.436-7.295-1.923-10.234-4.29-0.801-0.645-2.303-2.125-3.032-3.029-2.366-2.938-3.853-6.486-4.289-10.234-0.436-3.7474 0.197-7.542 1.825-10.945 1.629-3.4033 4.186-6.2766 7.378-8.2881s6.922-3.0797 10.66-3.0797h15.002c1.327 0 2.598 0.5269 3.536 1.4648s1.465 2.2099 1.465 3.5363v14.998c0 3.773-1.067 7.469-3.078 10.661-2.011 3.193-4.885 5.751-8.288 7.38s-7.197 2.262-10.945 1.826z"/><path d="m129.96 90 8.184-19.96h5.617l8.07 19.96h-5.304l-1.825-4.8189h-7.784l-1.854 4.8189h-5.104zm8.441-8.7253h4.847l-2.395-6.3871-2.452 6.3871zm27.789 9.0104c-1.616 0-3.213-0.2946-4.791-0.8839-1.577-0.5893-2.984-1.4067-4.22-2.4522l2.738-3.5642c1.216 0.9884 2.338 1.7013 3.364 2.1385 1.027 0.4182 2.12 0.6273 3.279 0.6273 0.761 0 1.407-0.076 1.939-0.2281 0.533-0.1521 0.941-0.3707 1.226-0.6558 0.286-0.3042 0.428-0.6558 0.428-1.055 0-0.5513-0.209-0.979-0.627-1.2832-0.418-0.3041-1.131-0.5417-2.139-0.7128l-4.391-0.7699c-1.616-0.2851-2.861-0.9029-3.735-1.8534-0.875-0.9505-1.312-2.1576-1.312-3.6213 0-1.2926 0.323-2.4047 0.97-3.3361 0.665-0.9315 1.606-1.6443 2.822-2.1386 1.236-0.4942 2.7-0.7413 4.392-0.7413 1.482 0 2.975 0.2566 4.476 0.7698 1.502 0.4943 2.804 1.1881 3.907 2.0816l-2.595 3.6212c-2.053-1.5777-4.097-2.3666-6.131-2.3666-0.665 0-1.245 0.076-1.739 0.2281-0.475 0.1331-0.846 0.3327-1.112 0.5988-0.247 0.2471-0.371 0.5513-0.371 0.9124 0 0.4943 0.181 0.8745 0.542 1.1406 0.38 0.2661 0.989 0.4752 1.825 0.6273l4.135 0.6843c1.919 0.3042 3.374 0.941 4.362 1.9105 1.008 0.9695 1.511 2.2241 1.511 3.7638 0 1.3497-0.351 2.5188-1.055 3.5072-0.703 0.9695-1.71 1.7204-3.022 2.2526-1.312 0.5323-2.87 0.7984-4.676 0.7984zm23.761 0c-1.616 0-3.213-0.2946-4.79-0.8839-1.578-0.5893-2.985-1.4067-4.22-2.4522l2.737-3.5642c1.216 0.9884 2.338 1.7013 3.365 2.1385 1.026 0.4182 2.119 0.6273 3.279 0.6273 0.76 0 1.406-0.076 1.939-0.2281 0.532-0.1521 0.941-0.3707 1.226-0.6558 0.285-0.3042 0.427-0.6558 0.427-1.055 0-0.5513-0.209-0.979-0.627-1.2832-0.418-0.3041-1.131-0.5417-2.138-0.7128l-4.392-0.7699c-1.615-0.2851-2.861-0.9029-3.735-1.8534s-1.312-2.1576-1.312-3.6213c0-1.2926 0.324-2.4047 0.97-3.3361 0.665-0.9315 1.606-1.6443 2.823-2.1386 1.235-0.4942 2.699-0.7413 4.391-0.7413 1.483 0 2.975 0.2566 4.477 0.7698 1.501 0.4943 2.803 1.1881 3.906 2.0816l-2.595 3.6212c-2.053-1.5777-4.096-2.3666-6.13-2.3666-0.666 0-1.245 0.076-1.74 0.2281-0.475 0.1331-0.846 0.3327-1.112 0.5988-0.247 0.2471-0.37 0.5513-0.37 0.9124 0 0.4943 0.18 0.8745 0.541 1.1406 0.381 0.2661 0.989 0.4752 1.825 0.6273l4.135 0.6843c1.92 0.3042 3.374 0.941 4.362 1.9105 1.008 0.9695 1.512 2.2241 1.512 3.7638 0 1.3497-0.352 2.5188-1.055 3.5072-0.704 0.9695-1.711 1.7204-3.023 2.2526-1.311 0.5323-2.87 0.7984-4.676 0.7984zm26.078 0.0286c-1.502 0-2.899-0.2567-4.192-0.7699-1.293-0.5323-2.424-1.2641-3.393-2.1956-0.97-0.9505-1.73-2.0435-2.281-3.2791-0.533-1.2546-0.799-2.6043-0.799-4.049s0.266-2.7849 0.799-4.0205c0.551-1.2546 1.311-2.3476 2.281-3.2791 0.969-0.9504 2.1-1.6823 3.393-2.1956 1.293-0.5322 2.69-0.7983 4.192-0.7983 1.501 0 2.898 0.2661 4.191 0.7983 1.293 0.5133 2.424 1.2452 3.393 2.1956 0.97 0.9315 1.721 2.0245 2.253 3.2791 0.551 1.2356 0.827 2.5758 0.827 4.0205s-0.276 2.7944-0.827 4.049c-0.532 1.2356-1.283 2.3286-2.253 3.2791-0.969 0.9315-2.1 1.6633-3.393 2.1956-1.293 0.5132-2.69 0.7699-4.191 0.7699zm0-4.5053c0.798 0 1.539-0.1425 2.224-0.4277 0.684-0.3041 1.273-0.7128 1.767-1.2261 0.514-0.5132 0.913-1.1215 1.198-1.8249 0.285-0.7223 0.428-1.4922 0.428-2.3096 0-0.8364-0.143-1.6063-0.428-2.3096-0.285-0.7034-0.684-1.3117-1.198-1.8249-0.494-0.5133-1.083-0.9125-1.767-1.1976-0.685-0.3042-1.426-0.4562-2.224-0.4562-0.799 0-1.54 0.152-2.225 0.4562-0.684 0.2851-1.283 0.6843-1.796 1.1976-0.494 0.5132-0.884 1.1215-1.169 1.8249-0.285 0.7033-0.428 1.4732-0.428 2.3096 0 0.8174 0.143 1.5873 0.428 2.3096 0.285 0.7034 0.675 1.3117 1.169 1.8249 0.513 0.5133 1.112 0.922 1.796 1.2261 0.685 0.2852 1.426 0.4277 2.225 0.4277zm28.412 4.4767c-1.52 0-2.937-0.2566-4.248-0.7698-1.293-0.5323-2.424-1.2642-3.393-2.1956-0.97-0.9315-1.73-2.015-2.281-3.2506-0.533-1.2546-0.799-2.6043-0.799-4.049 0-1.4637 0.266-2.8134 0.799-4.049 0.551-1.2546 1.311-2.3476 2.281-3.2791 0.988-0.9314 2.129-1.6538 3.421-2.1671 1.312-0.5322 2.719-0.7983 4.22-0.7983 1.103 0 2.186 0.1615 3.251 0.4847 1.064 0.3231 2.043 0.7794 2.937 1.3687 0.912 0.5702 1.673 1.2546 2.281 2.053l-3.308 3.2506c-0.703-0.8935-1.492-1.5588-2.366-1.996-0.856-0.4372-1.787-0.6558-2.795-0.6558-0.798 0-1.549 0.152-2.252 0.4562-0.685 0.2851-1.283 0.6843-1.797 1.1976-0.513 0.5132-0.912 1.1215-1.197 1.8249-0.285 0.7033-0.428 1.4732-0.428 2.3096 0 0.8174 0.143 1.5778 0.428 2.2811 0.304 0.6844 0.713 1.2927 1.226 1.8249 0.532 0.5133 1.15 0.9125 1.853 1.1976 0.723 0.2851 1.502 0.4277 2.338 0.4277 0.97 0 1.863-0.2091 2.681-0.6273 0.836-0.4182 1.587-1.036 2.252-1.8534l3.222 3.1651c-0.608 0.7793-1.359 1.4637-2.252 2.053-0.894 0.5702-1.863 1.017-2.909 1.3401-1.045 0.3042-2.1 0.4562-3.165 0.4562zm15.535-0.2851v-19.96h4.905v19.96h-4.905zm11.494 0 8.183-19.96h5.618l8.069 19.96h-5.303l-1.825-4.8189h-7.785l-1.853 4.8189h-5.104zm8.44-8.7253h4.847l-2.395-6.3871-2.452 6.3871zm21.701 8.7253v-15.626h-6.53v-4.3341h17.964v4.3341h-6.53v15.626h-4.904zm18.734 0v-19.96h4.904v19.96h-4.904zm23.298 0.3137c-1.502 0-2.899-0.2567-4.191-0.7699-1.293-0.5323-2.424-1.2641-3.394-2.1956-0.969-0.9505-1.729-2.0435-2.281-3.2791-0.532-1.2546-0.798-2.6043-0.798-4.049s0.266-2.7849 0.798-4.0205c0.552-1.2546 1.312-2.3476 2.281-3.2791 0.97-0.9504 2.101-1.6823 3.394-2.1956 1.292-0.5322 2.689-0.7983 4.191-0.7983s2.899 0.2661 4.192 0.7983c1.292 0.5133 2.423 1.2452 3.393 2.1956 0.969 0.9315 1.72 2.0245 2.252 3.2791 0.552 1.2356 0.827 2.5758 0.827 4.0205s-0.275 2.7944-0.827 4.049c-0.532 1.2356-1.283 2.3286-2.252 3.2791-0.97 0.9315-2.101 1.6633-3.393 2.1956-1.293 0.5132-2.69 0.7699-4.192 0.7699zm0-4.5053c0.799 0 1.54-0.1425 2.224-0.4277 0.685-0.3041 1.274-0.7128 1.768-1.2261 0.513-0.5132 0.913-1.1215 1.198-1.8249 0.285-0.7223 0.427-1.4922 0.427-2.3096 0-0.8364-0.142-1.6063-0.427-2.3096-0.285-0.7034-0.685-1.3117-1.198-1.8249-0.494-0.5133-1.083-0.9125-1.768-1.1976-0.684-0.3042-1.425-0.4562-2.224-0.4562-0.798 0-1.54 0.152-2.224 0.4562-0.684 0.2851-1.283 0.6843-1.796 1.1976-0.495 0.5132-0.884 1.1215-1.169 1.8249-0.286 0.7033-0.428 1.4732-0.428 2.3096 0 0.8174 0.142 1.5873 0.428 2.3096 0.285 0.7034 0.674 1.3117 1.169 1.8249 0.513 0.5133 1.112 0.922 1.796 1.2261 0.684 0.2852 1.426 0.4277 2.224 0.4277zm18.405 4.1916v-19.96h4.619l9.067 11.577v-11.577h4.62v19.96h-4.335l-9.352-12.033v12.033h-4.619z"/><path d="m81.939 194.4c-4.56 0-8.968-0.494-13.224-1.482-4.256-0.912-8.094-2.242-11.514-3.99l5.472-12.084c3.268 1.596 6.46 2.774 9.576 3.534s6.232 1.14 9.348 1.14c4.636 0 8.132-0.988 10.488-2.964 2.432-1.976 3.648-4.94 3.648-8.892v-4.674c-4.864 3.572-10.298 5.358-16.302 5.358-5.624 0-10.716-1.33-15.276-3.99-4.484-2.736-8.094-6.422-10.83-11.058-2.66-4.636-3.99-9.766-3.99-15.39s1.33-10.716 3.99-15.276c2.736-4.56 6.422-8.17 11.058-10.83 4.636-2.736 9.804-4.104 15.504-4.104 2.888 0 5.7 0.418 8.436 1.254s5.282 2.014 7.638 3.534v-3.876h15.39v59.28c0 7.828-2.546 13.87-7.638 18.126-5.0161 4.256-12.274 6.384-21.774 6.384zm-0.114-37.278c2.888 0 5.51-0.456 7.866-1.368 2.356-0.988 4.37-2.356 6.042-4.104v-23.256c-1.672-1.672-3.724-2.964-6.156-3.876-2.356-0.988-4.902-1.482-7.638-1.482-3.268 0-6.194 0.76-8.778 2.28-2.584 1.444-4.636 3.458-6.156 6.042-1.52 2.508-2.28 5.358-2.28 8.55 0 3.268 0.722 6.194 2.166 8.778 1.52 2.584 3.572 4.636 6.156 6.156 2.66 1.52 5.586 2.28 8.778 2.28zm47.419 12.882v-59.394h15.618v6.612c1.9-2.584 4.18-4.56 6.84-5.928s5.662-2.052 9.006-2.052c2.888 0.076 5.054 0.532 6.498 1.368v13.68c-1.14-0.532-2.394-0.912-3.762-1.14-1.368-0.304-2.774-0.456-4.218-0.456-3.04 0-5.814 0.76-8.322 2.28s-4.522 3.686-6.042 6.498v38.532h-15.618zm78.967 1.14c-5.928 0-11.324-1.368-16.188-4.104-4.788-2.736-8.588-6.422-11.4-11.058s-4.218-9.842-4.218-15.618 1.33-10.982 3.99-15.618c2.736-4.636 6.422-8.322 11.058-11.058s9.804-4.104 15.504-4.104 10.754 1.406 15.162 4.218 7.866 6.612 10.374 11.4c2.584 4.788 3.876 10.222 3.876 16.302v4.104h-44.004c0.684 2.356 1.786 4.484 3.306 6.384 1.596 1.9 3.534 3.382 5.814 4.446 2.356 1.064 4.864 1.596 7.524 1.596s5.092-0.418 7.296-1.254c2.28-0.836 4.218-2.014 5.814-3.534l10.26 9.348c-3.648 2.964-7.41 5.13-11.286 6.498-3.8 1.368-8.094 2.052-12.882 2.052zm-16.074-36.708h28.842c-0.532-2.356-1.52-4.408-2.964-6.156-1.368-1.824-3.04-3.23-5.016-4.218-1.9-1.064-4.028-1.596-6.384-1.596-2.432 0-4.636 0.494-6.612 1.482s-3.648 2.394-5.016 4.218c-1.292 1.748-2.242 3.838-2.85 6.27zm89.016 36.708c-5.928 0-11.324-1.368-16.188-4.104-4.788-2.736-8.588-6.422-11.4-11.058s-4.218-9.842-4.218-15.618 1.33-10.982 3.99-15.618c2.736-4.636 6.422-8.322 11.058-11.058s9.804-4.104 15.504-4.104 10.754 1.406 15.162 4.218 7.866 6.612 10.374 11.4c2.584 4.788 3.876 10.222 3.876 16.302v4.104h-44.004c0.684 2.356 1.786 4.484 3.306 6.384 1.596 1.9 3.534 3.382 5.814 4.446 2.356 1.064 4.864 1.596 7.524 1.596s5.092-0.418 7.296-1.254c2.28-0.836 4.218-2.014 5.814-3.534l10.26 9.348c-3.648 2.964-7.41 5.13-11.286 6.498-3.8 1.368-8.094 2.052-12.882 2.052zm-16.074-36.708h28.842c-0.532-2.356-1.52-4.408-2.964-6.156-1.368-1.824-3.04-3.23-5.016-4.218-1.9-1.064-4.028-1.596-6.384-1.596-2.432 0-4.636 0.494-6.612 1.482s-3.648 2.394-5.016 4.218c-1.292 1.748-2.242 3.838-2.85 6.27zm59.501 35.568v-59.394h15.618v4.902c4.484-4.028 10.032-6.042 16.644-6.042 4.636 0 8.702 1.026 12.198 3.078 3.572 1.976 6.346 4.75 8.322 8.322 1.976 3.496 2.964 7.6 2.964 12.312v36.822h-15.618v-34.542c0-3.876-1.102-6.916-3.306-9.12-2.204-2.28-5.206-3.42-9.006-3.42-2.66 0-5.016 0.532-7.068 1.596-2.052 0.988-3.762 2.432-5.13 4.332v41.154h-15.618z"/></g></svg>