<svg xmlns="http://www.w3.org/2000/svg" viewBox="0 0 630 250"><rect width="164" height="164" x="423" y="44" fill="#009839" stroke="#009839" stroke-width="6" rx="47"/><g fill="#fff"><path d="M545.5 171c-8 0-13.873-1.876-18.182-5.628-4.212-3.848-6.318-9.427-6.318-16.739V114h-17V98h17V81l18.039-5v22H560v16h-20.961v30.593c0 3.463.766 5.964 2.298 7.504 1.531 1.443 4.212 2.164 8.041 2.164 1.915 0 3.638-.096 5.17-.288 1.627-.289 3.399-.77 5.313-1.443v16.306c-2.01.673-4.547 1.202-7.611 1.587-2.967.385-4.644.577-6.75.577zM450 154a2 2 0 0 0 2 2h4v10a5 5 0 0 0 10 0v-10h8v10a5 5 0 0 0 10 0v-10h4a2 2 0 0 0 2-2v-13c0-8.284-6.716-15-15-15h-10c-8.284 0-15 6.716-15 15v13zM467.69 120.87a20.002 20.002 0 0 1-10.234-4.29c-.801-.645-2.303-2.125-3.032-3.029a20.002 20.002 0 0 1 15.574-32.547H485a5 5 0 0 1 5.001 5.001v14.998a20 20 0 0 1-22.311 19.867zM129.96 90l8.184-19.96h5.617l8.07 19.96h-5.304l-1.825-4.819h-7.784L135.064 90h-5.104zm8.441-8.725h4.847l-2.395-6.387-2.452 6.387zm27.789 9.01a13.6 13.6 0 0 1-4.791-.884 14.14 14.14 0 0 1-4.22-2.452l2.738-3.564c1.216.988 2.338 1.701 3.364 2.138a8.61 8.61 0 0 0 3.279.628c.761 0 1.407-.076 1.939-.228.533-.153.941-.371 1.226-.656.286-.304.428-.656.428-1.055 0-.552-.209-.98-.627-1.284-.418-.304-1.131-.541-2.139-.712l-4.391-.77c-1.616-.285-2.861-.903-3.735-1.854-.875-.95-1.312-2.157-1.312-3.62 0-1.294.323-2.406.97-3.337.665-.932 1.606-1.644 2.822-2.139 1.236-.494 2.7-.74 4.392-.74 1.482 0 2.975.256 4.476.769 1.502.494 2.804 1.188 3.907 2.081l-2.595 3.622c-2.053-1.578-4.097-2.367-6.131-2.367-.665 0-1.245.076-1.739.228-.475.133-.846.333-1.112.599a1.24 1.24 0 0 0-.371.912c0 .495.181.875.542 1.141.38.266.989.475 1.825.627l4.135.685c1.919.304 3.374.94 4.362 1.91 1.008.97 1.511 2.224 1.511 3.764 0 1.35-.351 2.519-1.055 3.507-.703.97-1.71 1.72-3.022 2.253-1.312.532-2.87.798-4.676.798zm23.761 0a13.59 13.59 0 0 1-4.79-.884 14.115 14.115 0 0 1-4.22-2.452l2.737-3.564c1.216.988 2.338 1.701 3.365 2.138a8.603 8.603 0 0 0 3.279.628c.76 0 1.406-.076 1.939-.228.532-.153.941-.371 1.226-.656.285-.304.427-.656.427-1.055 0-.552-.209-.98-.627-1.284-.418-.304-1.131-.541-2.138-.712l-4.392-.77c-1.615-.285-2.861-.903-3.735-1.854s-1.312-2.157-1.312-3.62c0-1.294.324-2.406.97-3.337.665-.932 1.606-1.644 2.823-2.139 1.235-.494 2.699-.74 4.391-.74 1.483 0 2.975.256 4.477.769 1.501.494 2.803 1.188 3.906 2.081l-2.595 3.622c-2.053-1.578-4.096-2.367-6.13-2.367-.666 0-1.245.076-1.74.228-.475.133-.846.333-1.112.599a1.24 1.24 0 0 0-.37.912c0 .495.18.875.541 1.141.381.266.989.475 1.825.627l4.135.685c1.92.304 3.374.94 4.362 1.91 1.008.97 1.512 2.224 1.512 3.764 0 1.35-.352 2.519-1.055 3.507-.704.97-1.711 1.72-3.023 2.253-1.311.532-2.87.798-4.676.798zm26.078.029c-1.502 0-2.899-.257-4.192-.77a10.746 10.746 0 0 1-3.393-2.196 10.59 10.59 0 0 1-2.281-3.279c-.533-1.255-.799-2.604-.799-4.049s.266-2.785.799-4.02a10.163 10.163 0 0 1 2.281-3.28c.969-.95 2.1-1.682 3.393-2.195 1.293-.532 2.69-.798 4.192-.798 1.501 0 2.898.266 4.191.798a10.128 10.128 0 0 1 3.393 2.195 9.801 9.801 0 0 1 2.253 3.28c.551 1.235.827 2.575.827 4.02s-.276 2.794-.827 4.05a10.197 10.197 0 0 1-2.253 3.278c-.969.932-2.1 1.663-3.393 2.196-1.293.513-2.69.77-4.191.77zm0-4.506c.798 0 1.539-.142 2.224-.427a5.555 5.555 0 0 0 1.767-1.226 5.425 5.425 0 0 0 1.198-1.825 6.236 6.236 0 0 0 .428-2.31c0-.836-.143-1.606-.428-2.31a5.425 5.425 0 0 0-1.198-1.824 5.195 5.195 0 0 0-1.767-1.198 5.416 5.416 0 0 0-2.224-.456c-.799 0-1.54.152-2.225.456a5.509 5.509 0 0 0-1.796 1.198 5.67 5.67 0 0 0-1.169 1.824 6.094 6.094 0 0 0-.428 2.31c0 .817.143 1.587.428 2.31a5.67 5.67 0 0 0 1.169 1.825 5.906 5.906 0 0 0 1.796 1.226 5.728 5.728 0 0 0 2.225.427zm28.412 4.477c-1.52 0-2.937-.257-4.248-.77a10.747 10.747 0 0 1-3.393-2.195 10.251 10.251 0 0 1-2.281-3.25c-.533-1.256-.799-2.605-.799-4.05 0-1.464.266-2.813.799-4.049a10.163 10.163 0 0 1 2.281-3.279 10.693 10.693 0 0 1 3.421-2.167c1.312-.532 2.719-.798 4.22-.798 1.103 0 2.186.161 3.251.484 1.064.323 2.043.78 2.937 1.369a8.484 8.484 0 0 1 2.281 2.053l-3.308 3.25c-.703-.893-1.492-1.558-2.366-1.995a6.053 6.053 0 0 0-2.795-.656 5.61 5.61 0 0 0-2.252.456 5.437 5.437 0 0 0-2.994 3.022 6.094 6.094 0 0 0-.428 2.31c0 .817.143 1.578.428 2.281a6.284 6.284 0 0 0 1.226 1.825c.532.513 1.15.913 1.853 1.198a6.315 6.315 0 0 0 2.338.427c.97 0 1.863-.209 2.681-.627.836-.418 1.587-1.036 2.252-1.853l3.222 3.165a9.37 9.37 0 0 1-2.252 2.053 11.925 11.925 0 0 1-2.909 1.34 11.27 11.27 0 0 1-3.165.456zM259.976 90V70.04h4.905V90h-4.905zm11.494 0 8.183-19.96h5.618L293.34 90h-5.303l-1.825-4.819h-7.785L276.574 90h-5.104zm8.44-8.725h4.847l-2.395-6.387-2.452 6.387zM301.611 90V74.374h-6.53V70.04h17.964v4.334h-6.53V90h-4.904zm18.734 0V70.04h4.904V90h-4.904zm23.298.314c-1.502 0-2.899-.257-4.191-.77a10.761 10.761 0 0 1-3.394-2.196 10.624 10.624 0 0 1-2.281-3.279c-.532-1.255-.798-2.604-.798-4.049s.266-2.785.798-4.02a10.194 10.194 0 0 1 2.281-3.28c.97-.95 2.101-1.682 3.394-2.195 1.292-.532 2.689-.798 4.191-.798s2.899.266 4.192.798a10.148 10.148 0 0 1 3.393 2.195A9.813 9.813 0 0 1 353.48 76c.552 1.235.827 2.575.827 4.02s-.275 2.794-.827 4.05a10.21 10.21 0 0 1-2.252 3.278 10.768 10.768 0 0 1-3.393 2.196c-1.293.513-2.69.77-4.192.77zm0-4.506a5.72 5.72 0 0 0 2.224-.427 5.548 5.548 0 0 0 1.768-1.226 5.44 5.44 0 0 0 1.198-1.825 6.235 6.235 0 0 0 .427-2.31c0-.836-.142-1.606-.427-2.31a5.44 5.44 0 0 0-1.198-1.824 5.19 5.19 0 0 0-1.768-1.198 5.41 5.41 0 0 0-2.224-.456c-.798 0-1.54.152-2.224.456a5.509 5.509 0 0 0-1.796 1.198 5.654 5.654 0 0 0-1.169 1.824 6.074 6.074 0 0 0-.428 2.31c0 .817.142 1.587.428 2.31a5.654 5.654 0 0 0 1.169 1.825 5.906 5.906 0 0 0 1.796 1.226 5.723 5.723 0 0 0 2.224.427zM362.048 90V70.04h4.619l9.067 11.577V70.04h4.62V90h-4.335l-9.352-12.033V90h-4.619zM81.939 194.4c-4.56 0-8.968-.494-13.224-1.482-4.256-.912-8.094-2.242-11.514-3.99l5.472-12.084c3.268 1.596 6.46 2.774 9.576 3.534s6.232 1.14 9.348 1.14c4.636 0 8.132-.988 10.488-2.964 2.432-1.976 3.648-4.94 3.648-8.892v-4.674c-4.864 3.572-10.298 5.358-16.302 5.358-5.624 0-10.716-1.33-15.276-3.99-4.484-2.736-8.094-6.422-10.83-11.058-2.66-4.636-3.99-9.766-3.99-15.39s1.33-10.716 3.99-15.276c2.736-4.56 6.422-8.17 11.058-10.83 4.636-2.736 9.804-4.104 15.504-4.104 2.888 0 5.7.418 8.436 1.254s5.282 2.014 7.638 3.534v-3.876h15.39v59.28c0 7.828-2.546 13.87-7.638 18.126-5.016 4.256-12.274 6.384-21.774 6.384zm-.114-37.278c2.888 0 5.51-.456 7.866-1.368 2.356-.988 4.37-2.356 6.042-4.104v-23.256c-1.672-1.672-3.724-2.964-6.156-3.876-2.356-.988-4.902-1.482-7.638-1.482-3.268 0-6.194.76-8.778 2.28-2.584 1.444-4.636 3.458-6.156 6.042-1.52 2.508-2.28 5.358-2.28 8.55 0 3.268.722 6.194 2.166 8.778a17.072 17.072 0 0 0 6.156 6.156c2.66 1.52 5.586 2.28 8.778 2.28zm47.419 12.882V110.61h15.618v6.612c1.9-2.584 4.18-4.56 6.84-5.928s5.662-2.052 9.006-2.052c2.888.076 5.054.532 6.498 1.368v13.68c-1.14-.532-2.394-.912-3.762-1.14a19.386 19.386 0 0 0-4.218-.456c-3.04 0-5.814.76-8.322 2.28s-4.522 3.686-6.042 6.498v38.532h-15.618zm78.967 1.14c-5.928 0-11.324-1.368-16.188-4.104-4.788-2.736-8.588-6.422-11.4-11.058s-4.218-9.842-4.218-15.618 1.33-10.982 3.99-15.618c2.736-4.636 6.422-8.322 11.058-11.058s9.804-4.104 15.504-4.104 10.754 1.406 15.162 4.218 7.866 6.612 10.374 11.4c2.584 4.788 3.876 10.222 3.876 16.302v4.104h-44.004a18.274 18.274 0 0 0 3.306 6.384 16.742 16.742 0 0 0 5.814 4.446c2.356 1.064 4.864 1.596 7.524 1.596s5.092-.418 7.296-1.254c2.28-.836 4.218-2.014 5.814-3.534l10.26 9.348c-3.648 2.964-7.41 5.13-11.286 6.498-3.8 1.368-8.094 2.052-12.882 2.052zm-16.074-36.708h28.842c-.532-2.356-1.52-4.408-2.964-6.156-1.368-1.824-3.04-3.23-5.016-4.218-1.9-1.064-4.028-1.596-6.384-1.596-2.432 0-4.636.494-6.612 1.482s-3.648 2.394-5.016 4.218c-1.292 1.748-2.242 3.838-2.85 6.27zm89.016 36.708c-5.928 0-11.324-1.368-16.188-4.104-4.788-2.736-8.588-6.422-11.4-11.058s-4.218-9.842-4.218-15.618 1.33-10.982 3.99-15.618c2.736-4.636 6.422-8.322 11.058-11.058s9.804-4.104 15.504-4.104 10.754 1.406 15.162 4.218 7.866 6.612 10.374 11.4c2.584 4.788 3.876 10.222 3.876 16.302v4.104h-44.004a18.274 18.274 0 0 0 3.306 6.384 16.742 16.742 0 0 0 5.814 4.446c2.356 1.064 4.864 1.596 7.524 1.596s5.092-.418 7.296-1.254c2.28-.836 4.218-2.014 5.814-3.534l10.26 9.348c-3.648 2.964-7.41 5.13-11.286 6.498-3.8 1.368-8.094 2.052-12.882 2.052zm-16.074-36.708h28.842c-.532-2.356-1.52-4.408-2.964-6.156-1.368-1.824-3.04-3.23-5.016-4.218-1.9-1.064-4.028-1.596-6.384-1.596-2.432 0-4.636.494-6.612 1.482s-3.648 2.394-5.016 4.218c-1.292 1.748-2.242 3.838-2.85 6.27zm59.501 35.568V110.61h15.618v4.902c4.484-4.028 10.032-6.042 16.644-6.042 4.636 0 8.702 1.026 12.198 3.078 3.572 1.976 6.346 4.75 8.322 8.322 1.976 3.496 2.964 7.6 2.964 12.312v36.822h-15.618v-34.542c0-3.876-1.102-6.916-3.306-9.12-2.204-2.28-5.206-3.42-9.006-3.42-2.66 0-5.016.532-7.068 1.596-2.052.988-3.762 2.432-5.13 4.332v41.154H324.58z"/></g></svg>